<svg width="60" height="60" viewBox="0 0 60 60" fill="none" xmlns="http://www.w3.org/2000/svg">
<path fill-rule="evenodd" clip-rule="evenodd" d="M53.2346 22.1668C51.7734 22.5296 50.8849 23.9999 51.2503 25.4509C51.7068 27.2641 51.9481 29.3606 51.9481 31.5C51.9481 44.1899 41.4808 54.5837 28.7013 54.5837C15.9218 54.5837 5.45455 44.1899 5.45455 31.5C5.45455 18.8101 15.9218 8.41629 28.7013 8.41629C33.1621 8.41629 37.3302 9.58217 41.0221 11.8734C42.2994 12.6661 43.982 12.2806 44.7803 11.0122C45.5786 9.74391 45.1903 8.07312 43.913 7.28042C39.3465 4.44637 34.1756 3 28.7013 3C12.9094 3 0 15.8188 0 31.5C0 47.1812 12.9094 60 28.7013 60C44.4932 60 57.4026 47.1812 57.4026 31.5C57.4026 28.9324 57.1107 26.3965 56.5419 24.1373C56.1766 22.6863 54.6959 21.8041 53.2346 22.1668ZM55.3443 6.37238L28.7013 32.8285L20.2402 24.4267C19.1751 23.3691 17.4483 23.3691 16.3832 24.4267C15.3181 25.4843 15.3181 27.199 16.3832 28.2566L26.7728 38.5733C27.8379 39.6309 29.5647 39.6309 30.6298 38.5733L59.2012 10.2023C60.2663 9.14468 60.2663 7.42998 59.2012 6.37238C58.1361 5.31479 56.4093 5.31479 55.3443 6.37238Z" fill="#8FD021"/>
<mask id="mask0_0_6873" style="mask-type:alpha" maskUnits="userSpaceOnUse" x="0" y="3" width="60" height="57">
<path fill-rule="evenodd" clip-rule="evenodd" d="M53.2346 22.1668C51.7734 22.5296 50.8849 23.9999 51.2503 25.4509C51.7068 27.2641 51.9481 29.3606 51.9481 31.5C51.9481 44.1899 41.4808 54.5837 28.7013 54.5837C15.9218 54.5837 5.45455 44.1899 5.45455 31.5C5.45455 18.8101 15.9218 8.41629 28.7013 8.41629C33.1621 8.41629 37.3302 9.58217 41.0221 11.8734C42.2994 12.6661 43.982 12.2806 44.7803 11.0122C45.5786 9.74391 45.1903 8.07312 43.913 7.28042C39.3465 4.44637 34.1756 3 28.7013 3C12.9094 3 0 15.8188 0 31.5C0 47.1812 12.9094 60 28.7013 60C44.4932 60 57.4026 47.1812 57.4026 31.5C57.4026 28.9324 57.1107 26.3965 56.5419 24.1373C56.1766 22.6863 54.6959 21.8041 53.2346 22.1668ZM55.3443 6.37238L28.7013 32.8285L20.2402 24.4267C19.1751 23.3691 17.4483 23.3691 16.3832 24.4267C15.3181 25.4843 15.3181 27.199 16.3832 28.2566L26.7728 38.5733C27.8379 39.6309 29.5647 39.6309 30.6298 38.5733L59.2012 10.2023C60.2663 9.14468 60.2663 7.42998 59.2012 6.37238C58.1361 5.31479 56.4093 5.31479 55.3443 6.37238Z" fill="white"/>
</mask>
<g mask="url(#mask0_0_6873)">
<rect width="60" height="60" fill="#8FD021"/>
</g>
</svg>
