<svg width="30" height="30" viewBox="0 0 30 30" fill="none" xmlns="http://www.w3.org/2000/svg">
<path fill-rule="evenodd" clip-rule="evenodd" d="M12.6883 5.77119C12.7615 5.53581 12.8032 5.39798 12.8467 5.24193C13.2261 3.88138 13.1975 2.82164 12.4154 1.84245C11.1775 0.0804424 8.3256 0.209713 6.43032 1.54223C2.40649 4.32941 0 8.9032 0 13.913C0 22.2935 6.70809 29.031 15.052 29.031C21.7978 29.031 27.7473 24.4591 29.5549 18.035C30.6513 13.3607 29.8598 8.62871 25.6296 6.44364C22.6674 5.04614 20.1936 5.21826 16.4534 6.38452C13.4167 7.33144 12.8672 7.38364 12.3713 6.786C12.3893 6.80836 12.4043 6.75373 12.457 6.56244C12.5006 6.4039 12.57 6.15147 12.6883 5.77119ZM15.052 26.2823C8.21954 26.2823 2.73673 20.7754 2.73673 13.913C2.73673 9.80964 4.69873 6.08065 7.99189 3.79955C8.81875 3.21825 10.0089 3.17044 10.1816 3.43052L10.2689 3.548C10.3711 3.67113 10.3789 3.89979 10.2114 4.50051C10.1772 4.62297 10.1417 4.74052 10.0762 4.95125C9.51948 6.74032 9.43854 7.50362 10.2516 8.52441C11.8499 10.4512 12.9886 10.3431 17.2649 9.00965C20.4105 8.02878 22.2776 7.89886 24.4224 8.90998C27.1454 10.3175 27.7316 13.8226 26.9061 17.3465C25.4452 22.5336 20.5669 26.2823 15.052 26.2823ZM21.2719 17.7862C19.1421 17.7862 17.4156 16.0521 17.4156 13.913C17.4156 11.7739 19.1421 10.0398 21.2719 10.0398C23.4017 10.0398 25.1282 11.7739 25.1282 13.913C25.1282 16.0521 23.4017 17.7862 21.2719 17.7862ZM22.3914 13.913C22.3914 14.534 21.8902 15.0375 21.2719 15.0375C20.6536 15.0375 20.1523 14.534 20.1523 13.913C20.1523 13.2919 20.6536 12.7885 21.2719 12.7885C21.8902 12.7885 22.3914 13.2919 22.3914 13.913ZM6.34424 16.5368C4.90149 16.5368 3.73191 15.3621 3.73191 13.913C3.73191 12.4639 4.90149 11.2892 6.34424 11.2892C7.787 11.2892 8.95658 12.4639 8.95658 13.913C8.95658 15.3621 7.787 16.5368 6.34424 16.5368ZM6.21985 13.913C6.21985 13.844 6.27554 13.788 6.34424 13.788C6.41295 13.788 6.46864 13.844 6.46864 13.913C6.46864 13.982 6.41295 14.0379 6.34424 14.0379C6.27554 14.0379 6.21985 13.982 6.21985 13.913ZM9.45417 22.7839C8.01141 22.7839 6.84183 21.6092 6.84183 20.1601C6.84183 18.711 8.01141 17.5363 9.45417 17.5363C10.8969 17.5363 12.0665 18.711 12.0665 20.1601C12.0665 21.6092 10.8969 22.7839 9.45417 22.7839ZM9.32977 20.1601C9.32977 20.0911 9.38546 20.0352 9.45417 20.0352C9.52287 20.0352 9.57856 20.0911 9.57856 20.1601C9.57856 20.2291 9.52287 20.285 9.45417 20.285C9.38546 20.285 9.32977 20.2291 9.32977 20.1601ZM16.296 25.2827C14.8532 25.2827 13.6837 24.108 13.6837 22.6589C13.6837 21.2099 14.8532 20.0352 16.296 20.0352C17.7388 20.0352 18.9083 21.2099 18.9083 22.6589C18.9083 24.108 17.7388 25.2827 16.296 25.2827ZM16.1716 22.6589C16.1716 22.5899 16.2273 22.534 16.296 22.534C16.3647 22.534 16.4204 22.5899 16.4204 22.6589C16.4204 22.7279 16.3647 22.7839 16.296 22.7839C16.2273 22.7839 16.1716 22.7279 16.1716 22.6589Z" fill="#FEB53E"/>
<mask id="mask0_0_1630" style="mask-type:alpha" maskUnits="userSpaceOnUse" x="0" y="0" width="30" height="30">
<path fill-rule="evenodd" clip-rule="evenodd" d="M12.6883 5.77119C12.7615 5.53581 12.8032 5.39798 12.8467 5.24193C13.2261 3.88138 13.1975 2.82164 12.4154 1.84245C11.1775 0.0804424 8.3256 0.209713 6.43032 1.54223C2.40649 4.32941 0 8.9032 0 13.913C0 22.2935 6.70809 29.031 15.052 29.031C21.7978 29.031 27.7473 24.4591 29.5549 18.035C30.6513 13.3607 29.8598 8.62871 25.6296 6.44364C22.6674 5.04614 20.1936 5.21826 16.4534 6.38452C13.4167 7.33144 12.8672 7.38364 12.3713 6.786C12.3893 6.80836 12.4043 6.75373 12.457 6.56244C12.5006 6.4039 12.57 6.15147 12.6883 5.77119ZM15.052 26.2823C8.21954 26.2823 2.73673 20.7754 2.73673 13.913C2.73673 9.80964 4.69873 6.08065 7.99189 3.79955C8.81875 3.21825 10.0089 3.17044 10.1816 3.43052L10.2689 3.548C10.3711 3.67113 10.3789 3.89979 10.2114 4.50051C10.1772 4.62297 10.1417 4.74052 10.0762 4.95125C9.51948 6.74032 9.43854 7.50362 10.2516 8.52441C11.8499 10.4512 12.9886 10.3431 17.2649 9.00965C20.4105 8.02878 22.2776 7.89886 24.4224 8.90998C27.1454 10.3175 27.7316 13.8226 26.9061 17.3465C25.4452 22.5336 20.5669 26.2823 15.052 26.2823ZM21.2719 17.7862C19.1421 17.7862 17.4156 16.0521 17.4156 13.913C17.4156 11.7739 19.1421 10.0398 21.2719 10.0398C23.4017 10.0398 25.1282 11.7739 25.1282 13.913C25.1282 16.0521 23.4017 17.7862 21.2719 17.7862ZM22.3914 13.913C22.3914 14.534 21.8902 15.0375 21.2719 15.0375C20.6536 15.0375 20.1523 14.534 20.1523 13.913C20.1523 13.2919 20.6536 12.7885 21.2719 12.7885C21.8902 12.7885 22.3914 13.2919 22.3914 13.913ZM6.34424 16.5368C4.90149 16.5368 3.73191 15.3621 3.73191 13.913C3.73191 12.4639 4.90149 11.2892 6.34424 11.2892C7.787 11.2892 8.95658 12.4639 8.95658 13.913C8.95658 15.3621 7.787 16.5368 6.34424 16.5368ZM6.21985 13.913C6.21985 13.844 6.27554 13.788 6.34424 13.788C6.41295 13.788 6.46864 13.844 6.46864 13.913C6.46864 13.982 6.41295 14.0379 6.34424 14.0379C6.27554 14.0379 6.21985 13.982 6.21985 13.913ZM9.45417 22.7839C8.01141 22.7839 6.84183 21.6092 6.84183 20.1601C6.84183 18.711 8.01141 17.5363 9.45417 17.5363C10.8969 17.5363 12.0665 18.711 12.0665 20.1601C12.0665 21.6092 10.8969 22.7839 9.45417 22.7839ZM9.32977 20.1601C9.32977 20.0911 9.38546 20.0352 9.45417 20.0352C9.52287 20.0352 9.57856 20.0911 9.57856 20.1601C9.57856 20.2291 9.52287 20.285 9.45417 20.285C9.38546 20.285 9.32977 20.2291 9.32977 20.1601ZM16.296 25.2827C14.8532 25.2827 13.6837 24.108 13.6837 22.6589C13.6837 21.2099 14.8532 20.0352 16.296 20.0352C17.7388 20.0352 18.9083 21.2099 18.9083 22.6589C18.9083 24.108 17.7388 25.2827 16.296 25.2827ZM16.1716 22.6589C16.1716 22.5899 16.2273 22.534 16.296 22.534C16.3647 22.534 16.4204 22.5899 16.4204 22.6589C16.4204 22.7279 16.3647 22.7839 16.296 22.7839C16.2273 22.7839 16.1716 22.7279 16.1716 22.6589Z" fill="white"/>
</mask>
<g mask="url(#mask0_0_1630)">
<rect width="30" height="30" fill="#FEB53E"/>
</g>
</svg>
