<svg width="37" height="24" viewBox="0 0 37 24" fill="none" xmlns="http://www.w3.org/2000/svg">
<path d="M8.22222 6H28.7778V18H8.22222V6ZM33.9167 12C33.9167 13.6569 35.2971 15 37 15V21C37 22.6569 35.6196 24 33.9167 24H3.08333C1.38043 24 0 22.6569 0 21V15C1.7029 15 3.08333 13.6569 3.08333 12C3.08333 10.3431 1.7029 9 0 9V3C0 1.34312 1.38043 0 3.08333 0H33.9167C35.6196 0 37 1.34312 37 3V9C35.2971 9 33.9167 10.3431 33.9167 12ZM30.8333 5.5C30.8333 4.67156 30.1431 4 29.2917 4H7.70833C6.85688 4 6.16667 4.67156 6.16667 5.5V18.5C6.16667 19.3284 6.85688 20 7.70833 20H29.2917C30.1431 20 30.8333 19.3284 30.8333 18.5V5.5Z" fill="#FAAD3D"/>
</svg>
