<svg width="20" height="20" viewBox="0 0 20 20" fill="none" xmlns="http://www.w3.org/2000/svg">
<path fill-rule="evenodd" clip-rule="evenodd" d="M8.36364 9.16691V5.83456C8.36364 5.15695 7.61142 4.76279 7.0699 5.15665L1.34262 9.32209C0.885792 9.65434 0.885792 10.3457 1.34262 10.6779L7.0699 14.8434C7.61142 15.2372 8.36364 14.8431 8.36364 14.1654V10.8331H18.1818C18.6337 10.8331 19 10.4601 19 10C19 9.5399 18.6337 9.16691 18.1818 9.16691H8.36364ZM8.36364 9.16691H7.54545C7.09388 9.16691 6.72776 9.53941 6.72727 9.99909V7.45341L3.22584 10L6.72727 12.5466V10.0009C6.72776 10.4606 7.09388 10.8331 7.54545 10.8331H8.36364V9.16691Z" fill="#111111"/>
<mask id="mask0_0_1235" style="mask-type:alpha" maskUnits="userSpaceOnUse" x="1" y="5" width="18" height="10">
<path fill-rule="evenodd" clip-rule="evenodd" d="M8.36364 9.16691V5.83456C8.36364 5.15695 7.61142 4.76279 7.0699 5.15665L1.34262 9.32209C0.885792 9.65434 0.885792 10.3457 1.34262 10.6779L7.0699 14.8434C7.61142 15.2372 8.36364 14.8431 8.36364 14.1654V10.8331H18.1818C18.6337 10.8331 19 10.4601 19 10C19 9.5399 18.6337 9.16691 18.1818 9.16691H8.36364ZM8.36364 9.16691H7.54545C7.09388 9.16691 6.72776 9.53941 6.72727 9.99909V7.45341L3.22584 10L6.72727 12.5466V10.0009C6.72776 10.4606 7.09388 10.8331 7.54545 10.8331H8.36364V9.16691Z" fill="white"/>
</mask>
<g mask="url(#mask0_0_1235)">
<rect width="20" height="20" fill="black"/>
</g>
</svg>
