<svg width="303" height="23" viewBox="0 0 303 23" fill="none" xmlns="http://www.w3.org/2000/svg">
<path fill-rule="evenodd" clip-rule="evenodd" d="M302.424 14.0661H300.481C300.287 14.0661 300.158 14.0733 300.049 14.1464C299.937 14.2184 299.894 14.3253 299.894 14.4664C299.894 14.6343 299.989 14.7484 300.127 14.7978C300.239 14.8368 300.36 14.8482 300.538 14.8482L301.115 14.8636C301.699 14.878 302.088 14.9779 302.325 15.2216C302.368 15.2556 302.394 15.2937 302.424 15.3318V14.0661ZM302.424 16.9987C302.165 17.3763 301.66 17.5677 300.977 17.5677H298.918V16.6138H300.969C301.172 16.6138 301.315 16.5871 301.4 16.5037C301.475 16.4349 301.526 16.335 301.526 16.2136C301.526 16.084 301.475 15.9811 301.396 15.9194C301.319 15.8515 301.206 15.8207 301.02 15.8207C300.019 15.7868 298.77 15.8515 298.77 14.4439C298.77 13.7987 299.181 13.1196 300.3 13.1196H302.424V12.2346H300.451C299.855 12.2346 299.423 12.3767 299.116 12.5978V12.2346H296.198C295.731 12.2346 295.183 12.3499 294.924 12.5978V12.2346H289.712V12.5978C289.297 12.2995 288.597 12.2346 288.274 12.2346H284.837V12.5978C284.509 12.281 283.779 12.2346 283.334 12.2346H279.487L278.606 13.1845L277.781 12.2346H272.034V18.4413H277.673L278.581 17.4763L279.435 18.4413L282.911 18.4444V16.9843H283.253C283.714 16.9914 284.258 16.9729 284.738 16.7661V18.4412H287.605V16.8235H287.743C287.92 16.8235 287.937 16.8307 287.937 17.0066V18.441H296.647C297.2 18.441 297.778 18.2999 298.098 18.0439V18.441H300.86C301.435 18.441 301.997 18.3607 302.424 18.1549V16.9987ZM298.171 15.2216C298.379 15.4359 298.49 15.7063 298.49 16.1641C298.49 17.121 297.89 17.5677 296.815 17.5677H294.738V16.6138H296.807C297.009 16.6138 297.152 16.5871 297.242 16.5037C297.315 16.4349 297.368 16.335 297.368 16.2136C297.368 16.084 297.311 15.9811 297.238 15.9194C297.156 15.8515 297.044 15.8207 296.858 15.8207C295.861 15.7868 294.613 15.8515 294.613 14.4439C294.613 13.7987 295.019 13.1196 296.137 13.1196H298.274V14.0663H296.319C296.125 14.0663 295.999 14.0736 295.891 14.1467C295.775 14.2187 295.731 14.3256 295.731 14.4667C295.731 14.6345 295.83 14.7487 295.965 14.798C296.077 14.8371 296.198 14.8485 296.379 14.8485L296.953 14.8639C297.532 14.878 297.93 14.9778 298.171 15.2216ZM288.55 14.9469C288.408 15.0313 288.231 15.0385 288.024 15.0385H286.729V14.0395H288.041C288.231 14.0395 288.421 14.0435 288.55 14.1198C288.688 14.1919 288.771 14.3296 288.771 14.52C288.771 14.7103 288.688 14.8636 288.55 14.9469ZM289.194 15.5005C289.432 15.5878 289.626 15.7444 289.716 15.8739C289.867 16.0911 289.889 16.2938 289.893 16.6859V17.5677H288.823V17.0111C288.823 16.7435 288.849 16.3473 288.65 16.1405C288.495 15.9811 288.257 15.943 287.868 15.943H286.729V17.5677H285.657V13.1195H288.119C288.659 13.1195 289.052 13.1432 289.402 13.3294C289.738 13.5321 289.95 13.8097 289.95 14.3172C289.95 15.0271 289.475 15.3894 289.194 15.5005ZM290.541 13.1195H294.1V14.0394H291.603V14.8481H294.039V15.7556H291.603V16.6407L294.1 16.6447V17.5677H290.541V13.1195ZM283.348 15.1723H281.97V14.0395H283.36C283.745 14.0395 284.012 14.1959 284.012 14.5849C284.012 14.9696 283.757 15.1723 283.348 15.1723ZM280.908 17.1631L279.271 15.3512L280.908 13.5968V17.1631ZM276.68 16.6407H274.059V15.7556H276.4V14.8481H274.059V14.0394H276.732L277.898 15.3357L276.68 16.6407ZM285.157 14.5849C285.157 15.8206 284.232 16.0757 283.3 16.0757H281.97V17.5677H279.897L278.585 16.0951L277.22 17.5677H272.997V13.1195H277.285L278.597 14.5775L279.953 13.1195H283.36C284.206 13.1195 285.157 13.353 285.157 14.5849Z" fill="#0072CE"/>
<path fill-rule="evenodd" clip-rule="evenodd" d="M267.911 7.99332L267.181 6.22044L266.455 7.99332H267.911ZM283.987 7.28736C283.84 7.37603 283.667 7.37898 283.459 7.37898H282.164V6.3912H283.477C283.663 6.3912 283.857 6.39952 283.983 6.47141C284.121 6.5362 284.207 6.67409 284.207 6.86457C284.207 7.05893 284.125 7.21533 283.987 7.28736ZM293.227 7.99332L292.489 6.22044L291.755 7.99332H293.227ZM276.003 9.91227H274.91L274.906 6.42929L273.36 9.91227H272.424L270.874 6.42621V9.91227H268.705L268.295 8.92034H266.076L265.662 9.91227H264.504L266.413 5.46512H267.997L269.81 9.67566V5.46512H271.551L272.946 8.48198L274.228 5.46512H276.003V9.91227H276.003ZM280.359 9.91227H276.798V5.46512H280.359V6.3912H277.864V7.1928H280.299V8.10439H277.864V8.9925H280.359V9.91227ZM285.381 6.66283C285.381 7.37187 284.906 7.7382 284.63 7.84819C284.863 7.93672 285.062 8.09312 285.157 8.22269C285.308 8.44389 285.334 8.64147 285.334 9.03865V9.91227H284.258L284.254 9.35145C284.254 9.08385 284.28 8.69901 284.086 8.48506C283.93 8.32866 283.693 8.29473 283.309 8.29473H282.164V9.91227H281.098V5.46512H283.551C284.095 5.46512 284.497 5.47948 284.842 5.67813C285.179 5.87679 285.381 6.16679 285.381 6.66283ZM287.087 9.91227H285.999V5.46512H287.087V9.91227ZM299.708 9.91227H298.197L296.177 6.57443V9.91227H294.005L293.59 8.92034H291.375L290.973 9.91227H289.725C289.207 9.91227 288.551 9.79799 288.179 9.4204C287.805 9.0428 287.61 8.53134 287.61 7.72264C287.61 7.06309 287.726 6.46015 288.184 5.98369C288.529 5.62877 289.069 5.46512 289.804 5.46512H290.836V6.41803H289.825C289.436 6.41803 289.216 6.47571 289.005 6.68147C288.823 6.86872 288.698 7.22271 288.698 7.68883C288.698 8.16528 288.793 8.50881 288.991 8.73322C289.156 8.9092 289.454 8.96259 289.735 8.96259H290.213L291.716 5.46526H293.314L295.119 9.67163V5.46526H296.742L298.616 8.56246V5.46526H299.708V9.91227ZM264.491 10.7858H266.313L266.724 9.79799H267.643L268.053 10.7858H271.637V10.0306L271.957 10.789H273.818L274.138 10.0193V10.7858H283.046L283.041 9.16433H283.214C283.334 9.16849 283.37 9.17962 283.37 9.37828V10.7858H287.977V10.4083C288.348 10.6068 288.926 10.7858 289.687 10.7858H291.625L292.04 9.79799H292.96L293.365 10.7858H297.1V9.84749L297.666 10.7858H300.659V4.58331H297.697V5.31583L297.282 4.58331H294.242V5.31583L293.862 4.58331H289.756C289.069 4.58331 288.465 4.67895 287.977 4.94548V4.58331H285.144V4.94548C284.833 4.67077 284.41 4.58331 283.939 4.58331H273.589L272.894 6.1853L272.181 4.58331H268.921V5.31583L268.563 4.58331H265.782L264.491 7.5323V10.7858H264.491Z" fill="#0072CE"/>
<path fill-rule="evenodd" clip-rule="evenodd" d="M220.608 11.5002C220.608 17.507 215.707 22.3763 209.66 22.3763C203.614 22.3763 198.713 17.507 198.713 11.5002C198.713 5.49401 203.614 0.624451 209.66 0.624451C215.707 0.624451 220.608 5.49401 220.608 11.5002Z" fill="#333399"/>
<path fill-rule="evenodd" clip-rule="evenodd" d="M224.358 0.624451C221.529 0.624451 218.952 1.69059 217.009 3.43959C216.613 3.79572 216.244 4.18106 215.903 4.59064H218.115C218.418 4.95587 218.696 5.33984 218.95 5.74237H215.069C214.836 6.11225 214.625 6.49639 214.438 6.89411H219.58C219.756 7.26708 219.911 7.65104 220.044 8.04515H213.974C213.848 8.42087 213.742 8.80484 213.656 9.19706H220.361C220.522 9.93956 220.608 10.7099 220.608 11.5002C220.608 12.708 220.409 13.8698 220.044 14.9552H213.974C214.107 15.3495 214.262 15.734 214.438 16.107H219.58C219.393 16.5043 219.182 16.8888 218.949 17.2587H215.069C215.322 17.6605 215.601 18.0452 215.903 18.4097H218.114C217.775 18.82 217.405 19.2053 217.009 19.5615C218.952 21.3105 221.529 22.3763 224.358 22.3763C230.404 22.3763 235.305 17.507 235.305 11.5002C235.305 5.49401 230.404 0.624451 224.358 0.624451Z" fill="#0066CC"/>
<path fill-rule="evenodd" clip-rule="evenodd" d="M233.847 17.5623C233.847 17.3685 234.005 17.2115 234.2 17.2115C234.396 17.2115 234.554 17.3685 234.554 17.5623C234.554 17.7564 234.396 17.9138 234.2 17.9138C234.005 17.9138 233.847 17.7564 233.847 17.5623ZM234.2 17.8296C234.349 17.8296 234.469 17.7102 234.469 17.5623C234.469 17.415 234.349 17.2959 234.2 17.2959C234.052 17.2959 233.932 17.415 233.932 17.5623C233.932 17.7102 234.052 17.8296 234.2 17.8296ZM234.153 17.7165H234.08V17.4083H234.211C234.239 17.4083 234.266 17.4083 234.291 17.4238C234.316 17.4408 234.33 17.4704 234.33 17.5006C234.33 17.5359 234.31 17.5685 234.276 17.5809L234.333 17.7165H234.253L234.206 17.5947H234.153V17.7165ZM234.153 17.5419H234.193C234.207 17.5419 234.223 17.5429 234.237 17.5359C234.249 17.5281 234.255 17.514 234.255 17.5003C234.255 17.4886 234.248 17.4752 234.237 17.4688C234.225 17.4615 234.204 17.4633 234.191 17.4633H234.153V17.5419Z" fill="#0066CC"/>
<path fill-rule="evenodd" clip-rule="evenodd" d="M209.029 9.0104C208.931 9.43699 208.88 9.67865 208.747 10.1981C207.924 9.85121 206.821 9.67022 205.974 10.1956C205.175 10.701 204.905 11.4893 204.963 12.3626C205.022 12.7829 205.339 13.1933 205.786 13.3714C206.561 13.6557 207.301 13.5517 208.124 13.1337C208.007 13.6594 207.919 14.0723 207.817 14.4482C206.829 14.7221 205.892 14.8122 204.905 14.4862C204.023 14.1814 203.305 13.3925 203.247 12.5412C203.047 11.1741 203.706 9.77541 205.045 9.13346C206.291 8.57658 207.712 8.67335 209.029 9.0104Z" fill="#000066"/>
<path fill-rule="evenodd" clip-rule="evenodd" d="M222.98 13.8691C222.719 14.1279 222.277 14.695 221.075 14.695C219.981 14.695 219.212 13.893 219.601 12.0923C219.601 12.0919 220.054 9.97235 220.054 9.97235H221.724C221.724 9.97235 221.271 12.0943 221.272 12.0923C221.117 12.8134 221.154 13.3622 221.891 13.3622C222.76 13.3622 223.02 12.8403 223.184 12.0923C223.183 12.0933 223.638 9.97235 223.638 9.97235H225.381L224.631 13.3801C224.546 13.7799 224.464 14.2032 224.417 14.6207H222.849C222.849 14.6207 222.948 14.053 222.98 13.8691Z" fill="#000066"/>
<path fill-rule="evenodd" clip-rule="evenodd" d="M225.934 11.4424C225.934 12.0319 226.324 12.4348 227.209 12.7358C227.893 12.9731 228 13.0427 228 13.2492C228 13.5432 227.695 13.668 227.036 13.668C226.534 13.668 226.069 13.6183 225.53 13.4891C225.53 13.4891 225.318 14.4533 225.296 14.5633C225.765 14.6463 226.576 14.695 227.048 14.695C228.816 14.695 229.637 14.2037 229.637 13.144C229.637 12.5099 229.293 12.1366 228.454 11.8506C227.746 11.6196 227.668 11.5663 227.668 11.3458C227.668 11.099 227.947 10.968 228.491 10.968C228.818 10.968 229.276 10.9955 229.702 11.0399L229.937 9.96135C229.502 9.90996 228.84 9.86871 228.458 9.86871C226.581 9.86871 225.928 10.5866 225.934 11.4424Z" fill="#000066"/>
<path fill-rule="evenodd" clip-rule="evenodd" d="M209.666 9.97235H211.414L210.418 14.6207H208.67L209.666 9.97235Z" fill="#000066"/>
<path fill-rule="evenodd" clip-rule="evenodd" d="M219.65 9.95261C218.418 9.79088 218.066 10.3924 217.735 10.6915C217.775 10.4495 217.848 10.2135 217.833 9.97238H216.228C216.007 11.4118 215.615 12.8685 215.308 14.3079L215.228 14.6204H217.045C217.253 13.6765 217.494 12.2514 217.772 11.82C218.049 11.3893 218.512 11.045 219.118 11.2522L219.65 9.95261Z" fill="#000066"/>
<path fill-rule="evenodd" clip-rule="evenodd" d="M215.84 9.95261C214.607 9.79088 214.256 10.3924 213.925 10.6915C213.964 10.4495 214.037 10.2135 214.022 9.97238H212.417C212.196 11.4118 211.804 12.8685 211.497 14.3079L211.417 14.6204H213.234C213.442 13.6765 213.683 12.2514 213.961 11.82C214.239 11.3893 214.701 11.045 215.308 11.2522L215.84 9.95261Z" fill="#000066"/>
<path fill-rule="evenodd" clip-rule="evenodd" d="M230.173 13.9289C230.173 13.7349 230.331 13.5775 230.526 13.5775C230.722 13.5775 230.88 13.7349 230.88 13.9289C230.88 14.123 230.722 14.2801 230.526 14.2801C230.331 14.2801 230.173 14.123 230.173 13.9289ZM230.526 14.1959C230.675 14.1959 230.795 14.0762 230.795 13.9289C230.795 13.7815 230.675 13.662 230.526 13.662C230.378 13.662 230.257 13.7815 230.257 13.9289C230.257 14.0762 230.378 14.1959 230.526 14.1959ZM230.479 14.0829H230.406V13.7741H230.537C230.565 13.7741 230.593 13.7748 230.617 13.7902C230.642 13.8071 230.656 13.837 230.656 13.8671C230.656 13.9021 230.636 13.9346 230.602 13.947L230.66 14.0829H230.579L230.532 13.9607H230.479V14.0829ZM230.479 13.9078H230.519C230.534 13.9078 230.55 13.9092 230.563 13.9021C230.575 13.8947 230.581 13.8803 230.581 13.8669C230.581 13.855 230.574 13.8413 230.564 13.8349C230.551 13.8279 230.531 13.8296 230.517 13.8296H230.479V13.9078Z" fill="white"/>
<path fill-rule="evenodd" clip-rule="evenodd" d="M209.372 8.67022C209.274 9.09733 209.222 9.33899 209.09 9.85788C208.267 9.51155 207.163 9.33057 206.316 9.85565C205.517 10.3608 205.247 11.1493 205.305 12.0225C205.365 12.4431 205.682 12.8533 206.129 13.0316C206.904 13.3157 207.643 13.2115 208.467 12.7935C208.35 13.3196 208.261 13.7325 208.159 14.1085C207.172 14.3821 206.234 14.4724 205.247 14.1463C204.365 13.8416 203.648 13.0527 203.59 12.2011C203.39 10.8341 204.048 9.43524 205.388 8.79346C206.634 8.23658 208.055 8.33318 209.372 8.67022Z" fill="white"/>
<path fill-rule="evenodd" clip-rule="evenodd" d="M223.322 13.5295C223.061 13.7883 222.619 14.3548 221.417 14.3548C220.323 14.3548 219.627 13.5532 220.016 11.7523L220.469 9.63275H222.14C222.14 9.63275 221.686 11.7542 221.686 11.7523C221.532 12.4737 221.569 13.0225 222.306 13.0225C223.175 13.0225 223.435 12.5005 223.599 11.7523C223.598 11.7537 224.053 9.63275 224.053 9.63275H225.723L224.973 13.0403C224.888 13.4398 224.806 13.8631 224.759 14.2811H223.191C223.191 14.2811 223.29 13.7131 223.322 13.5295Z" fill="white"/>
<path fill-rule="evenodd" clip-rule="evenodd" d="M226.277 11.1026C226.277 11.6921 226.667 12.095 227.552 12.3958C228.236 12.6331 228.343 12.7029 228.343 12.909C228.343 13.2034 228.038 13.3284 227.379 13.3284C226.878 13.3284 226.412 13.2784 225.873 13.1495C225.873 13.1495 225.66 14.1132 225.639 14.2237C226.108 14.3065 226.919 14.3548 227.391 14.3548C229.159 14.3548 229.98 13.8641 229.98 12.804C229.98 12.1698 229.636 11.797 228.797 11.511C228.089 11.28 228.011 11.2262 228.011 11.006C228.011 10.7592 228.29 10.6284 228.834 10.6284C229.161 10.6284 229.619 10.6559 230.045 10.6999L230.28 9.62121C229.845 9.56981 229.183 9.52856 228.801 9.52856C226.924 9.52856 226.271 10.2467 226.277 11.1026Z" fill="white"/>
<path fill-rule="evenodd" clip-rule="evenodd" d="M210.081 9.63275H211.756L210.76 14.2811H209.085L210.081 9.63275Z" fill="white"/>
<path fill-rule="evenodd" clip-rule="evenodd" d="M219.992 9.613C218.76 9.4511 218.409 10.0527 218.077 10.3517C218.117 10.1097 218.19 9.87339 218.175 9.63277H216.642C216.422 11.0719 216.029 12.5283 215.723 13.9681L215.643 14.2804H217.387C217.595 13.3365 217.836 11.9115 218.114 11.4804C218.392 11.0494 218.854 10.7053 219.46 10.9124L219.992 9.613Z" fill="white"/>
<path fill-rule="evenodd" clip-rule="evenodd" d="M216.182 9.613C214.95 9.4511 214.598 10.0527 214.267 10.3517C214.306 10.1097 214.379 9.87339 214.364 9.63277H212.832C212.611 11.0719 212.219 12.5283 211.912 13.9681L211.832 14.2804H213.576C213.785 13.3365 214.025 11.9115 214.304 11.4804C214.581 11.0494 215.043 10.7053 215.65 10.9124L216.182 9.613Z" fill="white"/>
<path fill-rule="evenodd" clip-rule="evenodd" d="M168.511 11.491C168.511 17.5715 163.601 22.5 157.544 22.5C151.488 22.5 146.578 17.5715 146.578 11.491C146.578 5.41044 151.488 0.48175 157.544 0.48175C163.601 0.48175 168.511 5.41044 168.511 11.491Z" fill="#CC0000"/>
<path fill-rule="evenodd" clip-rule="evenodd" d="M149.073 18.4823C148.77 18.1136 148.491 17.7241 148.237 17.3163H152.124C152.357 16.9425 152.568 16.5532 152.756 16.1504H147.606C147.43 15.7732 147.274 15.3842 147.142 14.9849H153.219C153.586 13.8871 153.783 12.7127 153.783 11.491C153.783 10.6911 153.698 9.91096 153.537 9.15971H146.825C146.91 8.76251 147.017 8.37384 147.143 7.99387H153.219C153.086 7.59458 152.93 7.20574 152.755 6.82855H147.607C147.795 6.42579 148.006 6.03711 148.239 5.66253H152.123C151.869 5.25577 151.59 4.86692 151.288 4.49774H149.074C149.415 4.08279 149.785 3.69325 150.181 3.33259C148.235 1.56095 145.651 0.48175 142.817 0.48175C136.76 0.48175 131.851 5.41044 131.851 11.491C131.851 17.5715 136.76 22.5 142.817 22.5C145.651 22.5 148.235 21.4208 150.181 19.6498C150.578 19.2885 150.948 18.8981 151.289 18.4823H149.073Z" fill="#0066CC"/>
<path fill-rule="evenodd" clip-rule="evenodd" d="M150.025 14.4661C149.557 14.5907 149.103 14.6516 148.624 14.6505C147.096 14.6491 146.3 13.9502 146.3 12.6137C146.3 11.0523 147.313 9.90381 148.689 9.90381C149.814 9.90381 150.532 10.5477 150.532 11.5566C150.532 11.8914 150.484 12.2176 150.365 12.6786H147.647C147.55 13.3314 148.025 13.6179 148.833 13.6179C149.317 13.6179 149.754 13.5306 150.239 13.3349L150.025 14.4661ZM149.294 11.7577C149.294 11.6593 149.446 10.9585 148.659 10.9433C148.225 10.9433 147.913 11.2332 147.787 11.7577H149.294Z" fill="#000066"/>
<path fill-rule="evenodd" clip-rule="evenodd" d="M150.946 11.4516C150.946 12.0283 151.269 12.4269 152.005 12.7235C152.567 12.9546 152.655 13.0216 152.655 13.2281C152.655 13.5143 152.407 13.6455 151.855 13.642C151.441 13.639 151.063 13.5884 150.617 13.4644L150.42 14.5164C150.816 14.6088 151.372 14.6391 151.865 14.6505C153.333 14.6505 154.011 14.1681 154.011 13.1253C154.011 12.4982 153.728 12.1296 153.031 11.8547C152.448 11.6209 152.38 11.5706 152.38 11.3588C152.38 11.1104 152.611 10.9848 153.061 10.9848C153.334 10.9848 153.707 11.0098 154.062 11.053L154.261 9.99518C153.9 9.9449 153.352 9.90454 153.034 9.90454C151.479 9.90454 150.941 10.6072 150.946 11.4516Z" fill="#000066"/>
<path fill-rule="evenodd" clip-rule="evenodd" d="M145.554 14.5752H144.414L144.441 14.0957C144.093 14.4739 143.63 14.6502 143.002 14.6502C142.258 14.6502 141.748 14.1395 141.748 13.4052C141.748 12.2889 142.634 11.645 144.157 11.645C144.314 11.645 144.513 11.6568 144.717 11.68C144.76 11.5305 144.771 11.4662 144.771 11.3851C144.771 11.0796 144.531 10.967 143.89 10.967C143.258 10.9694 142.832 11.0636 142.436 11.1702L142.631 10.1462C143.315 9.97149 143.763 9.90381 144.27 9.90381C145.45 9.90381 146.073 10.3683 146.073 11.2407C146.083 11.4736 146.002 11.9409 145.961 12.1455C145.915 12.4429 145.588 14.1681 145.554 14.5752ZM144.553 12.5386C144.409 12.5243 144.346 12.5199 144.247 12.5199C143.469 12.5199 143.075 12.7524 143.075 13.2112C143.075 13.4993 143.267 13.6794 143.567 13.6794C144.126 13.6794 144.53 13.2101 144.553 12.5386Z" fill="#000066"/>
<path fill-rule="evenodd" clip-rule="evenodd" d="M156.414 14.5029C156.039 14.6057 155.748 14.6506 155.433 14.6506C154.734 14.6506 154.353 14.2922 154.353 13.654C154.331 13.4786 154.501 12.6686 154.54 12.4429C154.579 12.2166 155.184 8.91687 155.184 8.91687H156.541L156.336 10.0088H157.032L156.843 11.1228H156.143C156.143 11.1228 155.76 13.0569 155.76 13.2048C155.76 13.4391 155.901 13.5411 156.226 13.5411C156.381 13.5411 156.502 13.5265 156.594 13.4986L156.414 14.5029Z" fill="#000066"/>
<path fill-rule="evenodd" clip-rule="evenodd" d="M162.478 9.9038C161.483 9.9038 160.706 10.3153 160.254 11.0014L160.646 9.98331C159.924 9.7173 159.459 10.0971 159.038 10.6368C159.038 10.6368 158.968 10.7264 158.897 10.8083V10.0082H157.623C157.45 11.4204 157.145 12.8526 156.906 14.2679L156.849 14.5757H158.219C158.35 13.8575 158.456 13.2747 158.563 12.8098C158.854 11.5345 159.344 11.1448 160.08 11.3174C159.91 11.6836 159.817 12.1081 159.817 12.5777C159.817 13.7178 160.433 14.6505 161.965 14.6505C163.51 14.6505 164.628 13.822 164.628 11.9328C164.628 10.7934 163.883 9.9038 162.478 9.9038ZM162.079 13.5424C161.595 13.5499 161.301 13.1421 161.301 12.5318C161.301 11.8087 161.729 10.9915 162.418 10.9915C162.973 10.9915 163.163 11.4336 163.163 11.9046C163.163 12.9331 162.743 13.5424 162.079 13.5424Z" fill="#000066"/>
<path fill-rule="evenodd" clip-rule="evenodd" d="M141.109 14.5757H139.744L140.555 10.2847L138.687 14.5757H137.443L137.216 10.3099L136.402 14.5757H135.163L136.218 8.99408H138.351L138.529 12.1057L139.881 8.99408H142.185L141.109 14.5757Z" fill="#000066"/>
<path fill-rule="evenodd" clip-rule="evenodd" d="M150.368 14.1222C149.9 14.2469 149.446 14.3078 148.967 14.3068C147.439 14.3054 146.643 13.6063 146.643 12.27C146.643 10.7085 147.656 9.56006 149.031 9.56006C150.157 9.56006 150.875 10.204 150.875 11.2127C150.875 11.5474 150.826 11.873 150.708 12.3349H147.989C147.893 12.9869 148.367 13.274 149.175 13.274C149.659 13.274 150.097 13.1867 150.582 12.9906L150.368 14.1222ZM149.637 11.414C149.637 11.3153 149.788 10.6147 149.002 10.5994C148.567 10.5994 148.256 10.8893 148.13 11.414H149.637Z" fill="white"/>
<path fill-rule="evenodd" clip-rule="evenodd" d="M151.289 11.1074C151.289 11.6843 151.612 12.0826 152.347 12.3795C152.91 12.6108 152.998 12.6776 152.998 12.8836C152.998 13.1703 152.75 13.3015 152.199 13.2982C151.784 13.295 151.406 13.2444 150.96 13.1204L150.763 14.1721C151.159 14.2648 151.716 14.2951 152.208 14.3067C153.676 14.3067 154.354 13.8241 154.354 12.7809C154.354 12.1542 154.071 11.7852 153.374 11.5107C152.791 11.277 152.723 11.2261 152.723 11.015C152.723 10.7666 152.954 10.6404 153.404 10.6404C153.677 10.6404 154.05 10.666 154.405 10.7092L154.604 9.65136C154.243 9.60039 153.695 9.56055 153.378 9.56055C151.822 9.56055 151.284 10.2629 151.289 11.1074Z" fill="white"/>
<path fill-rule="evenodd" clip-rule="evenodd" d="M145.897 14.2313H144.757L144.784 13.7518C144.436 14.1296 143.973 14.3057 143.345 14.3057C142.601 14.3057 142.091 13.7953 142.091 13.0609C142.091 11.945 142.977 11.3011 144.5 11.3011C144.657 11.3011 144.856 11.3131 145.06 11.3354C145.103 11.1863 145.114 11.1224 145.114 11.0412C145.114 10.7349 144.874 10.6229 144.234 10.6229C143.602 10.6255 143.175 10.7196 142.78 10.8265L142.974 9.80224C143.658 9.62756 144.106 9.56006 144.613 9.56006C145.793 9.56006 146.416 10.0241 146.416 10.8967C146.426 11.1299 146.345 11.5963 146.304 11.8016C146.258 12.099 145.931 13.8241 145.897 14.2313ZM144.896 12.1948C144.752 12.1799 144.689 12.176 144.59 12.176C143.812 12.176 143.418 12.4081 143.418 12.8666C143.418 13.1552 143.611 13.3356 143.91 13.3356C144.469 13.3356 144.873 12.8659 144.896 12.1948Z" fill="white"/>
<path fill-rule="evenodd" clip-rule="evenodd" d="M156.756 14.1589C156.382 14.2619 156.09 14.3067 155.775 14.3067C155.076 14.3067 154.695 13.9482 154.695 13.31C154.673 13.1346 154.844 12.3246 154.883 12.0989C154.921 11.8726 155.526 8.57288 155.526 8.57288H156.883L156.678 9.66443H157.374L157.185 10.7788H156.486C156.486 10.7788 156.102 12.7129 156.102 12.8601C156.102 13.0953 156.244 13.1966 156.569 13.1966C156.724 13.1966 156.844 13.1827 156.937 13.1545L156.756 14.1589Z" fill="white"/>
<path fill-rule="evenodd" clip-rule="evenodd" d="M163.506 11.56C163.506 12.5894 163.085 13.1987 162.421 13.1987C161.937 13.2056 161.643 12.7984 161.643 12.188C161.643 11.465 162.072 10.6476 162.76 10.6476C163.315 10.6476 163.506 11.0897 163.506 11.56ZM164.971 11.5888C164.971 10.4496 164.225 9.56006 162.82 9.56006C161.204 9.56006 160.159 10.6412 160.159 12.234C160.159 13.3739 160.776 14.3068 162.307 14.3068C163.852 14.3068 164.971 13.4783 164.971 11.5888Z" fill="white"/>
<path fill-rule="evenodd" clip-rule="evenodd" d="M157.965 9.66393C157.793 11.0765 157.487 12.5085 157.249 13.9237L157.191 14.232H158.562C159.056 11.4986 159.222 10.72 160.257 10.994L160.755 9.70082C160.033 9.4348 159.568 9.81477 159.148 10.3548C159.185 10.1118 159.257 9.87706 159.24 9.66393H157.965Z" fill="white"/>
<path fill-rule="evenodd" clip-rule="evenodd" d="M141.452 14.232H140.087L140.898 9.94091L139.03 14.232H137.786L137.558 9.96596L136.744 14.232H135.506L136.561 8.65015H138.694L138.807 12.1057L140.309 8.65015H142.528L141.452 14.232Z" fill="white"/>
<path fill-rule="evenodd" clip-rule="evenodd" d="M86.6209 11.767C86.6209 17.695 81.8157 22.5 75.8878 22.5C69.9598 22.5 65.1543 17.695 65.1543 11.767C65.1543 5.83913 69.9598 1.03363 75.8878 1.03363C81.8157 1.03363 86.6209 5.83913 86.6209 11.767Z" fill="#CC0000"/>
<path fill-rule="evenodd" clip-rule="evenodd" d="M90.298 1.03363C87.524 1.03363 84.9974 2.08578 83.0922 3.81183C82.7046 4.16362 82.3428 4.54357 82.0089 4.94811H84.1774C84.4736 5.30873 84.7465 5.68783 84.9957 6.08491H81.1904C80.9628 6.44976 80.7559 6.82886 80.572 7.2217H85.6138C85.7861 7.5896 85.9378 7.96853 86.0684 8.35798H80.1174C79.9936 8.72809 79.8891 9.10736 79.8057 9.49409H86.3798C86.5372 10.2269 86.621 10.9871 86.621 11.767C86.621 12.9586 86.4268 14.1055 86.0684 15.1767H80.1174C80.248 15.5658 80.3997 15.9452 80.5717 16.3137H85.6138C85.4296 16.7055 85.2237 17.0849 84.9947 17.4503H81.1904C81.4386 17.8462 81.712 18.2258 82.0089 18.5859H84.1768C83.8435 18.9908 83.4813 19.3707 83.0926 19.7225C84.9976 21.4486 87.524 22.5 90.298 22.5C96.2257 22.5 101.031 17.695 101.031 11.767C101.031 5.83964 96.2257 1.03363 90.298 1.03363Z" fill="#FF9900"/>
<path fill-rule="evenodd" clip-rule="evenodd" d="M73.3816 12.9421C73.2593 12.9282 73.2054 12.9238 73.1214 12.9238C72.4609 12.9238 72.127 13.1504 72.127 13.598C72.127 13.8737 72.29 14.0489 72.5444 14.0489C73.0192 14.0489 73.3613 13.597 73.3816 12.9421ZM74.2292 14.915C74.0738 14.915 73.2634 14.915 73.2634 14.915L73.2856 14.4561C72.9912 14.8184 72.5982 14.9915 72.0644 14.9915C71.433 14.9915 71 14.4985 71 13.7822C71 12.704 71.7529 12.0752 73.0456 12.0752C73.1781 12.0752 73.3474 12.0874 73.5207 12.1093C73.5567 11.9631 73.5662 11.901 73.5662 11.8221C73.5662 11.529 73.3633 11.4191 72.819 11.4191C72.2489 11.4133 71.7787 11.5553 71.5855 11.6187C71.5977 11.5451 71.7472 10.6229 71.7472 10.6229C72.3276 10.4523 72.7106 10.3885 73.1416 10.3885C74.1424 10.3885 74.6724 10.8376 74.6712 11.6868C74.6733 11.9146 74.6355 12.1946 74.5769 12.564C74.4758 13.2052 74.2587 14.5803 74.2292 14.915Z" fill="#000066"/>
<path fill-rule="evenodd" clip-rule="evenodd" d="M70.5116 14.9149H69.3461L70.0141 10.7301L68.5233 14.9149H67.7293L67.6311 10.7535L66.9295 14.9149H65.8389L66.7499 9.47064H68.4256L68.5268 12.518L69.5491 9.47064H71.4127L70.5116 14.9149Z" fill="#000066"/>
<path fill-rule="evenodd" clip-rule="evenodd" d="M91.7374 12.9421C91.6151 12.9282 91.5618 12.9238 91.478 12.9238C90.817 12.9238 90.4834 13.1504 90.4834 13.598C90.4834 13.8737 90.6457 14.0489 90.9008 14.0489C91.3753 14.0489 91.7176 13.597 91.7374 12.9421ZM92.5855 14.915C92.4298 14.915 91.62 14.915 91.62 14.915L91.6419 14.4561C91.3474 14.8184 90.9546 14.9915 90.4211 14.9915C89.789 14.9915 89.3564 14.4985 89.3564 13.7822C89.3564 12.704 90.1097 12.0752 91.4021 12.0752C91.5344 12.0752 91.7033 12.0874 91.8768 12.1093C91.913 11.9631 91.9223 11.901 91.9223 11.8221C91.9223 11.529 91.7194 11.4191 91.1751 11.4191C90.605 11.4133 90.135 11.5553 89.9411 11.6187C89.954 11.5451 90.1038 10.6229 90.1038 10.6229C90.6839 10.4523 91.0672 10.3885 91.4976 10.3885C92.499 10.3885 93.0284 10.8376 93.0274 11.6868C93.0294 11.9146 92.9919 12.1946 92.933 12.564C92.8323 13.2052 92.6147 14.5803 92.5855 14.915Z" fill="#000066"/>
<path fill-rule="evenodd" clip-rule="evenodd" d="M79.4069 14.8476C79.0878 14.948 78.8393 14.9915 78.5696 14.9915C77.9741 14.9915 77.649 14.6492 77.649 14.0187C77.6406 13.8229 77.7346 13.3081 77.8086 12.8386C77.8761 12.4249 78.314 9.8172 78.314 9.8172H79.472L79.3368 10.4874H80.0365L79.8786 11.5516H79.1765C79.042 12.3934 78.8502 13.4423 78.848 13.5814C78.848 13.8097 78.9698 13.9094 79.2471 13.9094C79.3799 13.9094 79.4827 13.8959 79.5612 13.8677L79.4069 14.8476Z" fill="#000066"/>
<path fill-rule="evenodd" clip-rule="evenodd" d="M82.9589 14.8118C82.561 14.9334 82.1774 14.9928 81.7705 14.9915C80.4738 14.9898 79.7979 14.313 79.7979 13.0162C79.7979 11.5029 80.6577 10.3885 81.8251 10.3885C82.7799 10.3885 83.3901 11.0124 83.3901 11.9904C83.3901 12.3155 83.3483 12.6324 83.2471 13.0795H80.9406C80.8627 13.7219 81.2735 13.9893 81.9478 13.9893C82.3618 13.9893 82.736 13.9039 83.1517 13.711L82.9589 14.8118ZM82.3079 12.1871C82.3145 12.0947 82.4305 11.3967 81.7685 11.3967C81.4001 11.3967 81.136 11.6779 81.029 12.1871H82.3079Z" fill="#000066"/>
<path fill-rule="evenodd" clip-rule="evenodd" d="M74.9275 11.8872C74.9275 12.4468 75.1989 12.833 75.8146 13.1233C76.2863 13.3453 76.3598 13.4109 76.3598 13.6119C76.3598 13.8876 76.1515 14.0128 75.6906 14.0128C75.3427 14.0128 75.0194 13.9581 74.6464 13.8375C74.6464 13.8375 74.4936 14.8139 74.4863 14.8605C74.7511 14.9178 74.9872 14.9713 75.6989 14.9915C76.9283 14.9915 77.4962 14.5233 77.4962 13.5115C77.4962 12.9033 77.2588 12.5462 76.6749 12.2775C76.1866 12.0535 76.1301 12.0033 76.1301 11.7967C76.1301 11.5573 76.324 11.435 76.7004 11.435C76.9292 11.435 77.2415 11.4595 77.5378 11.5014L77.7035 10.4745C77.4019 10.4265 76.9443 10.3885 76.678 10.3885C75.3746 10.3885 74.9233 11.0692 74.9275 11.8872Z" fill="#000066"/>
<path fill-rule="evenodd" clip-rule="evenodd" d="M88.6255 10.5053C88.9491 10.5053 89.2514 10.5895 89.6668 10.7993L89.8576 9.61772C89.6863 9.55055 89.0856 9.15686 88.5768 9.15686C87.7972 9.15686 87.1374 9.54427 86.6742 10.1822C85.9977 9.95831 85.7194 10.4109 85.3788 10.862L85.076 10.9326C85.0989 10.7842 85.1198 10.6368 85.1131 10.4874H84.0425C83.8966 11.8581 83.6376 13.2459 83.4349 14.6171L83.3818 14.9149H84.5476C84.7422 13.6506 84.8485 12.8413 84.9133 12.2931L85.3523 12.0499C85.4183 11.8055 85.623 11.7234 86.0349 11.7334C85.9811 12.0221 85.9519 12.3262 85.9519 12.6409C85.9519 14.0896 86.7345 14.9914 87.9884 14.9914C88.3115 14.9914 88.589 14.949 89.0186 14.832L89.2229 13.5914C88.8365 13.7812 88.5201 13.8706 88.2333 13.8706C87.5558 13.8706 87.1459 13.3704 87.1459 12.5442C87.1459 11.3451 87.7551 10.5053 88.6255 10.5053Z" fill="#000066"/>
<path fill-rule="evenodd" clip-rule="evenodd" d="M98.4909 9.47064L98.2318 11.0435C97.9138 10.6244 97.5715 10.3208 97.1196 10.3208C96.5317 10.3208 95.9966 10.7665 95.6462 11.423C95.1582 11.3217 94.6539 11.1495 94.6539 11.1495L94.6535 11.1538C94.6924 10.7869 94.7088 10.5637 94.7049 10.4873H93.6345C93.4891 11.858 93.2298 13.2459 93.0272 14.6171L92.9736 14.9149H94.1398C94.2972 13.8931 94.4174 13.0437 94.5061 12.371C94.9048 12.0107 95.1042 11.6974 95.5061 11.7178C95.3278 12.1489 95.2238 12.6452 95.2238 13.1544C95.2238 14.2609 95.7832 14.9914 96.6306 14.9914C97.0577 14.9914 97.3854 14.844 97.705 14.5028L97.65 14.9146H98.7526L99.6402 9.47064H98.4909ZM97.0337 13.8921C96.6371 13.8921 96.4363 13.598 96.4363 13.0193C96.4363 12.1489 96.8116 11.532 97.34 11.532C97.7405 11.532 97.9576 11.8367 97.9576 12.3991C97.9576 13.2769 97.5759 13.8921 97.0337 13.8921Z" fill="#000066"/>
<path fill-rule="evenodd" clip-rule="evenodd" d="M70.8473 14.5918H69.6822L70.35 10.407L68.8595 14.5918H68.0652L67.9672 10.4312L67.2655 14.5918H66.1748L67.0858 9.14807H68.7615L68.8083 12.5181L69.939 9.14807H71.7487L70.8473 14.5918Z" fill="white"/>
<path fill-rule="evenodd" clip-rule="evenodd" d="M73.7164 12.6197C73.5943 12.6054 73.5404 12.6015 73.4564 12.6015C72.7959 12.6015 72.4617 12.8278 72.4617 13.2751C72.4617 13.5504 72.6249 13.7266 72.8795 13.7266C73.3541 13.7266 73.6962 13.2747 73.7164 12.6197ZM74.5638 14.5918C74.4086 14.5918 73.5985 14.5918 73.5985 14.5918L73.6206 14.1334C73.3261 14.4955 72.9331 14.6687 72.3993 14.6687C71.7678 14.6687 71.335 14.1751 71.335 13.459C71.335 12.3805 72.0881 11.7526 73.3807 11.7526C73.5129 11.7526 73.6822 11.7646 73.8557 11.787C73.8916 11.6405 73.9011 11.5782 73.9011 11.499C73.9011 11.2061 73.6983 11.097 73.154 11.097C72.5837 11.0902 72.1137 11.2322 71.9203 11.2955C71.9327 11.2222 72.082 10.3 72.082 10.3C72.6626 10.1297 73.0456 10.0654 73.4766 10.0654C74.4772 10.0654 75.0071 10.515 75.0062 11.3638C75.0081 11.5913 74.9706 11.8727 74.9119 12.2411C74.8106 12.8817 74.5935 14.2577 74.5638 14.5918Z" fill="white"/>
<path fill-rule="evenodd" clip-rule="evenodd" d="M90.1932 9.2946L90.0024 10.476C89.5863 10.2669 89.2849 10.1822 88.9616 10.1822C88.0917 10.1822 87.4814 11.023 87.4814 12.2222C87.4814 13.0485 87.8915 13.5476 88.569 13.5476C88.856 13.5476 89.173 13.4589 89.5585 13.2684L89.3538 14.509C88.9248 14.6259 88.6472 14.6687 88.3242 14.6687C87.0695 14.6687 86.2881 13.7666 86.2881 12.3182C86.2881 10.372 87.3684 9.01184 88.9126 9.01184C89.4215 9.01184 90.0224 9.22743 90.1932 9.2946Z" fill="white"/>
<path fill-rule="evenodd" clip-rule="evenodd" d="M92.073 12.6197C91.9515 12.6054 91.8974 12.6015 91.8136 12.6015C91.1535 12.6015 90.8192 12.8278 90.8192 13.2751C90.8192 13.5504 90.9822 13.7266 91.2366 13.7266C91.711 13.7266 92.0535 13.2747 92.073 12.6197ZM92.9211 14.5918C92.7661 14.5918 91.9558 14.5918 91.9558 14.5918L91.9777 14.1334C91.6832 14.4955 91.2902 14.6687 90.7569 14.6687C90.1247 14.6687 89.6924 14.1751 89.6924 13.459C89.6924 12.3805 90.4448 11.7526 91.7378 11.7526C91.87 11.7526 92.0389 11.7646 92.2123 11.787C92.2484 11.6405 92.2579 11.5782 92.2579 11.499C92.2579 11.2061 92.0555 11.097 91.5109 11.097C90.9411 11.0902 90.4713 11.2322 90.2776 11.2955C90.2898 11.2222 90.4392 10.3 90.4392 10.3C91.0198 10.1297 91.4025 10.0654 91.8335 10.0654C92.8341 10.0654 93.3645 10.515 93.3631 11.3638C93.3655 11.5913 93.3277 11.8727 93.269 12.2411C93.1681 12.8817 92.9509 14.2577 92.9211 14.5918Z" fill="white"/>
<path fill-rule="evenodd" clip-rule="evenodd" d="M79.7428 14.5246C79.4241 14.6251 79.1753 14.6686 78.9059 14.6686C78.3102 14.6686 77.9849 14.3262 77.9849 13.6964C77.9767 13.5 78.0709 12.986 78.145 12.516C78.212 12.102 78.6501 9.49457 78.6501 9.49457H79.8085L79.6729 10.1646H80.2676L80.1092 11.2284H79.5126C79.3781 12.0711 79.1863 13.1193 79.1839 13.2584C79.1839 13.4874 79.3062 13.5865 79.5832 13.5865C79.716 13.5865 79.8186 13.5734 79.8975 13.5446L79.7428 14.5246Z" fill="white"/>
<path fill-rule="evenodd" clip-rule="evenodd" d="M83.294 14.4896C82.8959 14.6115 82.5116 14.669 82.1052 14.6687C80.8082 14.6678 80.1328 13.9902 80.1328 12.6936C80.1328 11.1798 80.9924 10.0654 82.1591 10.0654C83.1149 10.0654 83.7247 10.6892 83.7247 11.6684C83.7247 11.9929 83.6823 12.3096 83.5822 12.7569H81.2754C81.1972 13.3992 81.6085 13.6672 82.2821 13.6672C82.6964 13.6672 83.0705 13.5814 83.4867 13.388L83.294 14.4896ZM82.6428 11.864C82.6491 11.7714 82.7657 11.0738 82.1038 11.0738C81.735 11.0738 81.4709 11.3555 81.3636 11.864H82.6428Z" fill="white"/>
<path fill-rule="evenodd" clip-rule="evenodd" d="M75.2631 11.5641C75.2631 12.1247 75.5348 12.5101 76.1507 12.8007C76.6224 13.0225 76.6955 13.0882 76.6955 13.2893C76.6955 13.5653 76.4874 13.6898 76.0262 13.6898C75.6787 13.6898 75.3552 13.6359 74.982 13.5156C74.982 13.5156 74.8294 14.4913 74.8223 14.5372C75.0869 14.5952 75.3232 14.6482 76.0345 14.6687C77.2643 14.6687 77.8322 14.2007 77.8322 13.1889C77.8322 12.5803 77.5944 12.2234 77.0107 11.9554C76.5222 11.7307 76.4661 11.681 76.4661 11.4741C76.4661 11.2347 76.6598 11.1116 77.0365 11.1116C77.2648 11.1116 77.5774 11.137 77.8736 11.1788L78.0394 10.152C77.7377 10.1044 77.2804 10.0654 77.0139 10.0654C75.7102 10.0654 75.2592 10.7462 75.2631 11.5641Z" fill="white"/>
<path fill-rule="evenodd" clip-rule="evenodd" d="M99.0885 14.5918H97.9863L98.0409 14.1798C97.7212 14.5213 97.3937 14.6687 96.9666 14.6687C96.1198 14.6687 95.5596 13.939 95.5596 12.8314C95.5596 11.3587 96.4282 10.1174 97.4556 10.1174C97.9074 10.1174 98.2496 10.302 98.5683 10.7213L98.8268 9.14807H99.976L99.0885 14.5918ZM97.3694 13.5689C97.9124 13.5689 98.2933 12.954 98.2933 12.0771C98.2933 11.5144 98.0764 11.2088 97.6759 11.2088C97.1474 11.2088 96.7722 11.8259 96.7722 12.6965C96.7722 13.2759 96.9732 13.5689 97.3694 13.5689Z" fill="white"/>
<path fill-rule="evenodd" clip-rule="evenodd" d="M93.9702 10.1646C93.8245 11.535 93.5654 12.9228 93.3627 14.2942L93.3096 14.5918H94.475C94.892 11.8844 94.9922 11.356 95.6463 11.422C95.7502 10.8678 95.9441 10.3826 96.0885 10.138C95.6005 10.0362 95.3279 10.312 94.9707 10.8361C94.9992 10.6093 95.0505 10.3893 95.0409 10.1646H93.9702Z" fill="white"/>
<path fill-rule="evenodd" clip-rule="evenodd" d="M84.379 10.1646C84.2326 11.535 83.9731 12.9228 83.7707 14.2942L83.7178 14.5918H84.8836C85.3007 11.8844 85.4006 11.356 86.0536 11.422C86.1583 10.8678 86.3525 10.3826 86.4965 10.138C86.009 10.0362 85.7359 10.312 85.3794 10.8361C85.4075 10.6093 85.4593 10.3893 85.4491 10.1646H84.379Z" fill="white"/>
<path fill-rule="evenodd" clip-rule="evenodd" d="M11.8193 16.7507L13.5104 6.25995H16.2136L14.5227 16.7507H11.8193Z" fill="#26337A"/>
<path fill-rule="evenodd" clip-rule="evenodd" d="M24.328 6.51749C23.7935 6.30694 22.9529 6.07733 21.9058 6.07733C19.2332 6.07733 17.3519 7.50098 17.3363 9.53954C17.3193 11.0475 18.6788 11.8884 19.7037 12.3896C20.757 12.9034 21.1109 13.2321 21.1067 13.6915C21.0995 14.3941 20.266 14.7161 19.4888 14.7161C18.4065 14.7161 17.8315 14.5576 16.9425 14.1659L16.5948 13.9989L16.2168 16.3471C16.8471 16.6393 18.0157 16.893 19.2284 16.9063C22.0687 16.9063 23.9143 15.4998 23.9359 13.3229C23.9457 12.1272 23.2253 11.2208 21.6653 10.4725C20.7207 9.98605 20.1409 9.6638 20.1476 9.17143C20.1482 8.73546 20.6374 8.26866 21.6961 8.26866C22.5803 8.2544 23.2204 8.4586 23.7192 8.67178L23.9619 8.7917L24.328 6.51749Z" fill="#26337A"/>
<path fill-rule="evenodd" clip-rule="evenodd" d="M27.9276 13.0314C28.1516 12.4284 29.0044 10.099 29.0044 10.099C28.9887 10.1267 29.2272 9.49137 29.3637 9.09816L29.5462 10.0029C29.5462 10.0029 30.0649 12.5069 30.1717 13.0314C29.7509 13.0314 28.4554 13.0314 27.9276 13.0314ZM31.2625 6.27069H29.1734C28.5255 6.27069 28.0405 6.4563 27.7566 7.14031L23.7422 16.7545H26.5814C26.5814 16.7545 27.0446 15.4611 27.1498 15.1773C27.4594 15.1773 30.2183 15.1827 30.6121 15.1827C30.6931 15.5488 30.9412 16.7545 30.9412 16.7545H33.4502L31.2625 6.27069Z" fill="#26337A"/>
<path fill-rule="evenodd" clip-rule="evenodd" d="M9.55175 6.2688L6.90594 13.421L6.62254 11.9671C6.1295 10.292 4.5947 8.47639 2.87793 7.56664L5.29848 16.7416L8.15935 16.7399L12.4163 6.2688H9.55175Z" fill="#26337A"/>
<path fill-rule="evenodd" clip-rule="evenodd" d="M4.44974 6.26166H0.0905566L0.0546875 6.47902C3.44664 7.34802 5.69093 9.44562 6.62245 11.9671L5.67516 7.14677C5.51174 6.48197 5.03679 6.2849 4.44974 6.26166Z" fill="#EC982D"/>
</svg>
