<svg width="20" height="20" viewBox="0 0 20 20" fill="none" xmlns="http://www.w3.org/2000/svg">
<path fill-rule="evenodd" clip-rule="evenodd" d="M11.6364 9.16691V5.83456C11.6364 5.15695 12.3886 4.76279 12.9301 5.15665L18.6574 9.32209C19.1142 9.65434 19.1142 10.3457 18.6574 10.6779L12.9301 14.8434C12.3886 15.2372 11.6364 14.8431 11.6364 14.1654V10.8331H1.81818C1.36631 10.8331 1 10.4601 1 10C1 9.5399 1.36631 9.16691 1.81818 9.16691H11.6364ZM11.6364 9.16691H12.4545C12.9061 9.16691 13.2722 9.53941 13.2727 9.99909V7.45341L16.7742 10L13.2727 12.5466V10.0009C13.2722 10.4606 12.9061 10.8331 12.4545 10.8331H11.6364V9.16691Z" fill="#111111"/>
<mask id="mask0_0_1234" style="mask-type:alpha" maskUnits="userSpaceOnUse" x="1" y="5" width="18" height="10">
<path fill-rule="evenodd" clip-rule="evenodd" d="M11.6364 9.16691V5.83456C11.6364 5.15695 12.3886 4.76279 12.9301 5.15665L18.6574 9.32209C19.1142 9.65434 19.1142 10.3457 18.6574 10.6779L12.9301 14.8434C12.3886 15.2372 11.6364 14.8431 11.6364 14.1654V10.8331H1.81818C1.36631 10.8331 1 10.4601 1 10C1 9.5399 1.36631 9.16691 1.81818 9.16691H11.6364ZM11.6364 9.16691H12.4545C12.9061 9.16691 13.2722 9.53941 13.2727 9.99909V7.45341L16.7742 10L13.2727 12.5466V10.0009C13.2722 10.4606 12.9061 10.8331 12.4545 10.8331H11.6364V9.16691Z" fill="white"/>
</mask>
<g mask="url(#mask0_0_1234)">
<rect width="20" height="20" fill="black"/>
</g>
</svg>
