<svg width="30" height="30" viewBox="0 0 30 30" fill="none" xmlns="http://www.w3.org/2000/svg">
<path fill-rule="evenodd" clip-rule="evenodd" d="M15 0C19.4934 0 23.044 3.33779 23.044 7.56198V9.91736H20.1429V7.56198C20.1429 4.84402 17.8912 2.72727 15 2.72727C12.1088 2.72727 9.85714 4.84402 9.85714 7.56198V9.91736H6.95604V7.56198C6.95604 3.33779 10.5066 0 15 0ZM6.95604 9.91736V11.281C6.95604 12.0341 7.60548 12.6446 8.40659 12.6446H5.9011V27.2727H24.0989V12.6446H21.5934C22.3945 12.6446 23.044 12.0341 23.044 11.281V9.91736H25.5494C26.3506 9.91736 27 10.5279 27 11.281V28.6364C27 29.3895 26.3506 30 25.5494 30H4.45055C3.64943 30 3 29.3895 3 28.6364V11.281C3 10.5279 3.64943 9.91736 4.45055 9.91736H6.95604ZM13.5495 22.313C14.0003 22.4739 14.4892 22.562 15 22.562C15.5108 22.562 15.9997 22.4739 16.4506 22.313V23.6777C16.4506 24.4308 15.8011 25.0413 15 25.0413C14.1989 25.0413 13.5495 24.4308 13.5495 23.6777V22.313ZM15 19.8347C15.6555 19.8347 16.1868 19.3352 16.1868 18.719C16.1868 18.1028 15.6555 17.6033 15 17.6033C14.3445 17.6033 13.8132 18.1028 13.8132 18.719C13.8132 19.3352 14.3445 19.8347 15 19.8347ZM15 19.8347C15.8011 19.8347 16.4506 20.4452 16.4506 21.1983V22.313C17.9922 21.7628 19.0879 20.3612 19.0879 18.719C19.0879 16.5966 17.2577 14.876 15 14.876C12.7423 14.876 10.9121 16.5966 10.9121 18.719C10.9121 20.3612 12.0078 21.7628 13.5495 22.313V21.1983C13.5495 20.4452 14.1989 19.8347 15 19.8347Z" fill="#FEB53E"/>
<mask id="mask0_0_1640" style="mask-type:alpha" maskUnits="userSpaceOnUse" x="3" y="0" width="24" height="30">
<path fill-rule="evenodd" clip-rule="evenodd" d="M15 0C19.4934 0 23.044 3.33779 23.044 7.56198V9.91736H20.1429V7.56198C20.1429 4.84402 17.8912 2.72727 15 2.72727C12.1088 2.72727 9.85714 4.84402 9.85714 7.56198V9.91736H6.95604V7.56198C6.95604 3.33779 10.5066 0 15 0ZM6.95604 9.91736V11.281C6.95604 12.0341 7.60548 12.6446 8.40659 12.6446H5.9011V27.2727H24.0989V12.6446H21.5934C22.3945 12.6446 23.044 12.0341 23.044 11.281V9.91736H25.5494C26.3506 9.91736 27 10.5279 27 11.281V28.6364C27 29.3895 26.3506 30 25.5494 30H4.45055C3.64943 30 3 29.3895 3 28.6364V11.281C3 10.5279 3.64943 9.91736 4.45055 9.91736H6.95604ZM13.5495 22.313C14.0003 22.4739 14.4892 22.562 15 22.562C15.5108 22.562 15.9997 22.4739 16.4506 22.313V23.6777C16.4506 24.4308 15.8011 25.0413 15 25.0413C14.1989 25.0413 13.5495 24.4308 13.5495 23.6777V22.313ZM15 19.8347C15.6555 19.8347 16.1868 19.3352 16.1868 18.719C16.1868 18.1028 15.6555 17.6033 15 17.6033C14.3445 17.6033 13.8132 18.1028 13.8132 18.719C13.8132 19.3352 14.3445 19.8347 15 19.8347ZM15 19.8347C15.8011 19.8347 16.4506 20.4452 16.4506 21.1983V22.313C17.9922 21.7628 19.0879 20.3612 19.0879 18.719C19.0879 16.5966 17.2577 14.876 15 14.876C12.7423 14.876 10.9121 16.5966 10.9121 18.719C10.9121 20.3612 12.0078 21.7628 13.5495 22.313V21.1983C13.5495 20.4452 14.1989 19.8347 15 19.8347Z" fill="white"/>
</mask>
<g mask="url(#mask0_0_1640)">
<rect width="30" height="30" fill="#FEB53E"/>
</g>
</svg>
