<svg width="20" height="20" viewBox="0 0 20 20" fill="none" xmlns="http://www.w3.org/2000/svg">
<path fill-rule="evenodd" clip-rule="evenodd" d="M0 4.21488C0 6.54269 1.88706 8.42975 4.21488 8.42975C6.54269 8.42975 8.42975 6.54269 8.42975 4.21488C8.42975 1.88706 6.54269 0 4.21488 0C1.88706 0 0 1.88706 0 4.21488ZM6.61157 4.21488C6.61157 5.53853 5.53853 6.61157 4.21488 6.61157C2.89122 6.61157 1.81818 5.53853 1.81818 4.21488C1.81818 2.89122 2.89122 1.81818 4.21488 1.81818C5.53853 1.81818 6.61157 2.89122 6.61157 4.21488ZM15.7851 20C13.4573 20 11.5702 18.1129 11.5702 15.7851C11.5702 13.4573 13.4573 11.5702 15.7851 11.5702C18.1129 11.5702 20 13.4573 20 15.7851C20 18.1129 18.1129 20 15.7851 20ZM18.1818 15.7851C18.1818 17.1088 17.1088 18.1818 15.7851 18.1818C14.4615 18.1818 13.3884 17.1088 13.3884 15.7851C13.3884 14.4615 14.4615 13.3884 15.7851 13.3884C17.1088 13.3884 18.1818 14.4615 18.1818 15.7851ZM16.5289 5.12397H13.0212L12.1121 4.21488L13.0212 3.30579H18.3471V9.17355H16.5289V5.12397ZM14.5914 1.73554L13.0212 3.30579H10.8264V5.12397H13.0212L14.5914 6.69422L13.3058 7.97986L9.5408 4.21488L13.3058 0.449888L14.5914 1.73554ZM9.17355 16.6942V14.876H6.97882L5.40857 13.3058L6.69421 12.0201L10.4592 15.7851L6.69421 19.5501L5.40857 18.2645L6.97881 16.6942H9.17355ZM6.97881 16.6942H1.65289V10.8264H3.47107V14.876H6.97882L7.88791 15.7851L6.97881 16.6942Z" fill="#111111"/>
<mask id="mask0_0_3848" style="mask-type:alpha" maskUnits="userSpaceOnUse" x="0" y="0" width="20" height="20">
<path fill-rule="evenodd" clip-rule="evenodd" d="M0 4.21488C0 6.54269 1.88706 8.42975 4.21488 8.42975C6.54269 8.42975 8.42975 6.54269 8.42975 4.21488C8.42975 1.88706 6.54269 0 4.21488 0C1.88706 0 0 1.88706 0 4.21488ZM6.61157 4.21488C6.61157 5.53853 5.53853 6.61157 4.21488 6.61157C2.89122 6.61157 1.81818 5.53853 1.81818 4.21488C1.81818 2.89122 2.89122 1.81818 4.21488 1.81818C5.53853 1.81818 6.61157 2.89122 6.61157 4.21488ZM15.7851 20C13.4573 20 11.5702 18.1129 11.5702 15.7851C11.5702 13.4573 13.4573 11.5702 15.7851 11.5702C18.1129 11.5702 20 13.4573 20 15.7851C20 18.1129 18.1129 20 15.7851 20ZM18.1818 15.7851C18.1818 17.1088 17.1088 18.1818 15.7851 18.1818C14.4615 18.1818 13.3884 17.1088 13.3884 15.7851C13.3884 14.4615 14.4615 13.3884 15.7851 13.3884C17.1088 13.3884 18.1818 14.4615 18.1818 15.7851ZM16.5289 5.12397H13.0212L12.1121 4.21488L13.0212 3.30579H18.3471V9.17355H16.5289V5.12397ZM14.5914 1.73554L13.0212 3.30579H10.8264V5.12397H13.0212L14.5914 6.69422L13.3058 7.97986L9.5408 4.21488L13.3058 0.449888L14.5914 1.73554ZM9.17355 16.6942V14.876H6.97882L5.40857 13.3058L6.69421 12.0201L10.4592 15.7851L6.69421 19.5501L5.40857 18.2645L6.97881 16.6942H9.17355ZM6.97881 16.6942H1.65289V10.8264H3.47107V14.876H6.97882L7.88791 15.7851L6.97881 16.6942Z" fill="white"/>
</mask>
<g mask="url(#mask0_0_3848)">
<rect width="20" height="20" fill="black"/>
</g>
</svg>
